<svg xmlns="http://www.w3.org/2000/svg" version="1.1" xmlns:xlink="http://www.w3.org/1999/xlink" xmlns:svgjs="http://svgjs.com/svgjs" width="100%" height="100%" viewBox="0 0 1000 600"><rect width="1000" height="600" x="0" y="0" fill="#e4d7d0"/><g><rect width="333.3333333333333" height="333.3333333333333" rx="13.333333333333334" ry="13.333333333333334" y="209.74035507922892" fill="#0a4158" transform="matrix(0.6666021384000409,0,0,0.6666021384000409,0,49.08625871537497)" x="187.51815795898438"/><path d="M285.47319459230454 367.49847769617725L285.47319459230454 367.49847769617725L278.3590721435096 390.3652998530183L323.425767477617 390.3652998530183L316.3434045040399 367.49847769617725Q312.21467272572136 354.9217255099147 308.5623330756704 342.4402517493056Q304.9099934256194 329.99053746391445 301.22589430035055 316.9373931493843L301.22589430035055 316.9373931493843L300.3366289942512 316.9373931493843Q296.90660567072507 329.99053746391445 293.2225065454562 342.4402517493056Q289.57016689540524 354.9217255099147 285.47319459230454 367.49847769617725ZM259.1763491119374 451.4070112216966L239.73955027862254 451.4070112216966L290.49119167672245 301.4070097678632L311.9923563991965 301.4070097678632L362.7439977972964 451.4070112216966L342.3861741826644 451.4070112216966L328.2214482355101 405.6733669080146L273.5633913856165 405.6733669080146L259.1763491119374 451.4070112216966ZM468.6300881735574 451.4070112216966L384.02284619324564 451.4070112216966L384.02284619324564 301.4070097678632L402.983252898293 301.4070097678632L402.983252898293 435.177919385383L468.6300881735574 435.177919385383L468.6300881735574 451.4070112216966Z " fill="#e4d7d0" transform="matrix(0.6666021384000409,0,0,0.6666021384000409,0,49.08625871537497)"/><path d="M645.6276421029306 372.8958835050878L645.6276421029306 372.8958835050878L639.1809804205482 393.6172960556031L680.0194309888553 393.6172960556031L673.6015490461263 372.8958835050878Q669.8601828911721 361.49910660230444 666.5505128310203 350.18866891848154Q663.2408427708687 338.90701097431213 659.9023929710634 327.07853797672624L659.9023929710634 327.07853797672624L659.0965602607655 327.07853797672624Q655.9883483781882 338.90701097431213 652.649898578383 350.18866891848154Q649.3402285182312 361.49910660230444 645.6276421029306 372.8958835050878ZM621.7980176698381 448.93195566961754L604.1848170019 448.93195566961754L650.1748409681826 313.005245286168L669.6587247135976 313.005245286168L715.6487486798802 448.93195566961754L697.200935561991 448.93195566961754L684.3651716765328 407.4891305685869L634.8352397328706 407.4891305685869L621.7980176698381 448.93195566961754ZM750.2707754830328 448.93195566961754L733.2619493478182 448.93195566961754L733.2619493478182 348.23164662204397L750.2707754830328 348.23164662204397L750.2707754830328 448.93195566961754ZM741.9822104628267 327.51023407152866L741.9822104628267 327.51023407152866Q737.0033155027724 327.51023407152866 733.5785264840066 324.4020221889514Q730.1537374652409 321.2938103063741 730.1537374652409 316.5163735238942L730.1537374652409 316.5163735238942Q730.1537374652409 311.53747856383984 733.5785264840066 308.5443856398765Q737.0033155027724 305.5512927159132 741.9822104628267 305.5512927159132L741.9822104628267 305.5512927159132Q746.9323256832276 305.5512927159132 750.3571147019933 308.5443856398765Q753.781903720759 311.53747856383984 753.781903720759 316.5163735238942L753.781903720759 316.5163735238942Q753.781903720759 321.2938103063741 750.3571147019933 324.4020221889514Q746.9323256832276 327.51023407152866 741.9822104628267 327.51023407152866ZM818.6514368997332 451.407013279818L818.6514368997332 451.407013279818Q799.5704695094671 451.407013279818 788.2888115652977 437.7366369444086Q776.9783738814747 424.0662606089992 776.9783738814747 398.7976491932319L776.9783738814747 398.7976491932319Q776.9783738814747 386.5662598404972 780.604621077815 376.7235888790025Q784.2308682741551 366.88091791750765 790.2458338617353 360.03133987997626Q796.2607994493153 353.21054158209836 804.1464481143726 349.46917542714414Q812.0033170397762 345.72780927219003 820.7235781547847 345.72780927219003L820.7235781547847 345.72780927219003Q829.4150595301398 345.72780927219003 835.8329414728688 348.8360211547673Q842.2508234155979 351.9442330373446 848.8989432755549 357.3548240922014L848.8989432755549 357.3548240922014L848.0643308256035 340.1445397794123L848.0643308256035 301.40701020581014L865.2746151383926 301.40701020581014L865.2746151383926 448.93195566961754L851.1725427081808 448.93195566961754L849.7335557255062 437.13226241168525L849.1004014531293 437.13226241168525Q843.0854358655492 442.9169900820374 835.3149061591059 447.1763915507544Q827.5443764526627 451.407013279818 818.6514368997332 451.407013279818ZM822.3640233150339 437.13226241168525L822.3640233150339 437.13226241168525Q829.4150595301398 437.13226241168525 835.6314832952944 433.7074733929195Q841.847907060449 430.28268437415375 848.0643308256035 423.23164815904784L848.0643308256035 423.23164815904784L848.0643308256035 370.5935043328084Q841.6464488828746 364.8087766624561 835.7466022539083 362.42005827121625Q829.8179758852887 360.03133987997626 823.6015521201341 360.03133987997626L823.6015521201341 360.03133987997626Q817.6153662722074 360.03133987997626 812.3198941759647 362.82297462636507Q807.024422079722 365.6433891124075 803.1103774868468 370.7086232914223Q799.1675531543182 375.7738574704372 796.8939537216922 382.8248936855431Q794.5915745494127 389.875929900649 794.5915745494127 398.567411276004L794.5915745494127 398.567411276004Q794.5915745494127 416.81376621631887 801.8440689420931 426.97301431400206Q809.0965633347735 437.13226241168525 822.3640233150339 437.13226241168525ZM940.0731584978221 451.407013279818L940.0731584978221 451.407013279818Q929.9139104001389 451.407013279818 921.1073100661699 447.78076608347783Q912.3007097322009 444.15451888713767 905.7677088308578 437.4200598082201Q899.2347079295148 430.6856007293027 895.5221215142142 420.9580487264219Q891.7807553592601 411.23049672354114 891.7807553592601 398.7976491932319L891.7807553592601 398.7976491932319Q891.7807553592601 386.3648016629228 895.6084607331748 376.52213070142807Q899.4649458467428 366.67945973993324 905.7677088308578 359.82988170240185Q912.0992515546264 352.98030366487035 920.1863583972581 349.3540564685302Q928.2446855002363 345.72780927219003 936.9649466152448 345.72780927219003L936.9649466152448 345.72780927219003Q946.4910404405512 345.72780927219003 954.06011196942 349.0662590719952Q961.6291834982887 352.375929132147 966.6944176773036 358.59235289730157Q971.7596518563184 364.8087766624561 974.4649473837467 373.50025803781125Q977.1702429111751 382.22051915281975 977.1702429111751 392.9841417832263L977.1702429111751 392.9841417832263Q977.1702429111751 395.6894373106546 977.0551239525612 398.279613879469Q976.9400049939472 400.8697904482834 976.5370886387982 402.71169378610705L976.5370886387982 402.71169378610705L908.5593435772469 402.71169378610705Q909.5954142047725 418.8859074713704 918.6322524559695 428.3256620777163Q927.640310967513 437.7366369444086 942.1452997528736 437.7366369444086L942.1452997528736 437.7366369444086Q949.3977941455539 437.7366369444086 955.4990989520945 435.5781564703966Q961.6291834982887 433.390896256731 967.2124529910664 429.8797680190048L967.2124529910664 429.8797680190048L973.2274185786464 441.0463070045603Q966.5792987186896 445.19058951466343 958.5209716157115 448.2988013972407Q950.4338647730797 451.407013279818 940.0731584978221 451.407013279818ZM908.3578853996723 390.5090841730258L908.3578853996723 390.5090841730258L962.2335580310121 390.5090841730258Q962.2335580310121 375.16948293771384 955.700557129669 367.1974950536961Q949.1963359679795 359.1967274300249 937.3678629703936 359.1967274300249L937.3678629703936 359.1967274300249Q931.9860516551905 359.1967274300249 927.1222756537501 361.26886868507654Q922.2584996523096 363.34100994012806 918.3156753197811 367.39895323127064Q914.3728509872524 371.42811678275973 911.782674418438 377.24162419276536Q909.1924978496236 383.0263518631175 908.3578853996723 390.5090841730258ZM1080.345609568949 448.93195566961754L1003.6763831320426 448.93195566961754L1003.6763831320426 313.005245286168L1020.8866674448317 313.005245286168L1020.8866674448317 434.2255087066824L1080.345609568949 434.2255087066824L1080.345609568949 448.93195566961754ZM1128.4365545299365 372.8958835050878L1128.4365545299365 372.8958835050878L1121.989892847554 393.6172960556031L1162.8283434158614 393.6172960556031L1156.4104614731323 372.8958835050878Q1152.6690953181783 361.49910660230444 1149.3594252580265 350.18866891848154Q1146.0497551978747 338.90701097431213 1142.7113053980695 327.07853797672624L1142.7113053980695 327.07853797672624L1141.9054726877716 327.07853797672624Q1138.7972608051941 338.90701097431213 1135.4588110053892 350.18866891848154Q1132.1491409452374 361.49910660230444 1128.4365545299365 372.8958835050878ZM1104.606930096844 448.93195566961754L1086.9937294289061 448.93195566961754L1132.9837533951886 313.005245286168L1152.4676371406035 313.005245286168L1198.4576611068862 448.93195566961754L1180.0098479889969 448.93195566961754L1167.174084103539 407.4891305685869L1117.6441521598767 407.4891305685869L1104.606930096844 448.93195566961754ZM1261.0535948532347 448.93195566961754L1217.7400866747269 448.93195566961754L1217.7400866747269 313.005245286168L1258.1468411482315 313.005245286168Q1268.5075474234893 313.005245286168 1277.1126895798839 314.875928363645Q1285.689051996625 316.71783170146864 1291.8191365428188 320.66065603399727Q1297.9204413493596 324.6034803665258 1301.3452303681254 330.9350230902944Q1304.770019386891 337.2377860744094 1304.770019386891 346.15950536699245L1304.770019386891 346.15950536699245Q1304.770019386891 356.31875346467564 1299.6760054682227 364.49219952626777Q1294.6107712892078 372.6656455878599 1284.883219286327 375.7738574704372L1284.883219286327 375.7738574704372L1284.883219286327 376.60846992038853Q1297.3160668166363 378.88206935301446 1304.9714775644657 386.9691761956461Q1312.6268883122948 395.0562830382778 1312.6268883122948 409.1583554684896L1312.6268883122948 409.1583554684896Q1312.6268883122948 419.0873656489448 1308.914301896994 426.54131821919964Q1305.17293574204 434.02405052910797 1298.352137444162 438.97416574950876Q1291.5025594066306 443.95306070956315 1281.9764655813242 446.4568980594171Q1272.4503717560178 448.93195566961754 1261.0535948532347 448.93195566961754L1261.0535948532347 448.93195566961754ZM1234.9215912478624 326.67562162157736L1234.9215912478624 370.8237422500363L1255.0386292656544 370.8237422500363Q1272.4503717560178 370.8237422500363 1280.105782503847 364.8087766624561Q1287.7611932516763 358.7938110748761 1287.7611932516763 348.4331047996184L1287.7611932516763 348.4331047996184Q1287.7611932516763 336.6334115416861 1279.7892053676587 331.6545165816317Q1271.817217483641 326.67562162157736 1255.8732417156057 326.67562162157736L1255.8732417156057 326.67562162157736L1234.9215912478624 326.67562162157736ZM1234.9215912478624 384.06242249064326L1234.9215912478624 435.26157933420814L1258.5497575033805 435.26157933420814Q1276.1629581713187 435.26157933420814 1285.919289913853 428.7285784328651Q1295.6468419167336 422.1955775315221 1295.6468419167336 408.5252011961127L1295.6468419167336 408.5252011961127Q1295.6468419167336 395.89089548822915 1286.1207480914272 389.99104885926295Q1276.5946542661209 384.06242249064326 1258.5497575033805 384.06242249064326L1258.5497575033805 384.06242249064326L1234.9215912478624 384.06242249064326Z " fill="#0a4158" transform="matrix(0.6666021384000409,0,0,0.6666021384000409,0,49.08625871537497)"/></g></svg>